:SAMPLES-PER-SECOND 30
:FULLY-SPECIFIED
:DEGREES
1104
root  -69.832 39.8255 2.71001 177.888 63.9259 176.147
RightUpLeg  -9.01175 -9.22991 3.27818
RightLeg  20.3221 -6.39112 -1.17924
RightFoot  -13.9624 -0.24309 -6.49439
RightToes  -8.3237e-009 0 -3.6325e-017
Spine  5.24623 -1.24001 4.86616
Spine1  5.74506 -0.307592 -0.600778
HEad  -18.175 -12.0482 1.99059
LeftShoulder1  -0.711444 5.29215 -33.6158
LeftArm  -2.47845 11.2298 -37.7813
LeftForeArm  23.4079 -32.8519 -5.92317
LeftHand  -0.0290256 5.24429 2.15172
RightShoulder  -1.15947 -6.55477 31.4488
RightArm  13.4486 -21.7429 42.0981
RightForeArm  20.2935 6.25804 6.53147
RightHand  -0.0931049 4.28614 -1.37746
LeftUpLeg  -8.25803 15.7955 2.38645
LeftLeg  47.1051 1.33127 1.99344
LeftFoot  -0.277215 0.298755 -3.06455
LeftToes  -1.18267e-011 3.61711e-011 9.57411e-011
1105
root  -69.4327 39.8246 2.4736 176.365 66.4963 174.95
RightUpLeg  -7.95594 -8.46722 2.8247
RightLeg  20.4829 -4.82654 -0.89189
RightFoot  -14.4598 -0.278019 -6.62216
RightToes  -8.3237e-009 0 -3.6325e-017
Spine  4.97161 -1.38076 5.01332
Spine1  6.42588 -0.394382 -0.25454
HEad  -18.7444 -10.8514 1.43845
LeftShoulder1  -0.698784 5.27126 -33.3725
LeftArm  -3.18909 10.8022 -38.1182
LeftForeArm  23.1583 -33.5837 -6.12374
LeftHand  -0.0318004 5.1145 2.69666
RightShoulder  -1.36154 -7.05958 31.7916
RightArm  14.5148 -20.5974 42.3883
RightForeArm  23.3143 6.42021 6.89718
RightHand  0.104689 4.11953 0.971845
LeftUpLeg  -10.6154 11.0427 2.00111
LeftLeg  50.5481 -0.851173 -0.62391
LeftFoot  -0.99547 0.256513 -2.76817
LeftToes  -1.18267e-011 3.61711e-011 9.57411e-011
1106
root  -69.0236 39.8768 2.20816 175.005 69.4871 173.307
RightUpLeg  -7.36225 -7.31218 2.50873
RightLeg  20.1396 -3.33314 -0.767929
RightFoot  -14.4867 -0.278459 -6.57088
RightToes  -8.3237e-009 0 -3.6325e-017
Spine  5.01673 -1.23965 5.25226
Spine1  5.58347 -0.317474 0.0604318
HEad  -18.2048 -9.23862 0.638527
LeftShoulder1  -0.715402 5.30565 -33.5384
LeftArm  -2.9005 10.9221 -38.0719
LeftForeArm  22.938 -33.8949 -6.21674
LeftHand  -0.0286151 5.28068 3.71244
RightShoulder  -1.26282 -6.84056 31.3365
RightArm  14.9702 -20.3416 42.9181
RightForeArm  24.1139 7.89335 7.01523
RightHand  0.0918236 3.20419 0.878484
LeftUpLeg  -13.4098 7.1966 1.44833
LeftLeg  51.6703 0.013644 0.464916
LeftFoot  -1.61225 0.178353 -1.97695
LeftToes  -1.18267e-011 3.61711e-011 9.57411e-011
1107
root  -68.5743 39.9541 1.94412 172.442 72.7291 170.381
RightUpLeg  -6.53239 -6.81455 1.72977
RightLeg  19.359 -0.266708 -0.149307
RightFoot  -14.6063 -0.288251 -6.64593
RightToes  -8.3237e-009 0 -3.6325e-017
Spine  4.59175 -0.889065 5.47449
Spine1  5.52258 0.0336832 -0.24144
HEad  -18.372 -7.85465 -0.0668739
LeftShoulder1  -0.687699 5.25499 -33.1176
LeftArm  -3.13768 11.0492 -38.6078
LeftForeArm  23.7279 -34.0006 -6.19797
LeftHand  -0.0207654 5.63764 3.01833
RightShoulder  -1.24826 -6.82161 31.1124
RightArm  15.7349 -18.2588 43.6965
RightForeArm  23.8368 8.64061 7.1654
RightHand  0.493057 6.21523 4.61376
LeftUpLeg  -15.8275 4.48549 0.935368
LeftLeg  50.4319 1.87463 2.86533
LeftFoot  -2.39843 0.0722625 -0.737141
LeftToes  -1.18267e-011 3.61711e-011 9.57411e-011
1108
root  -68.0311 40.0735 1.7064 167.644 75.5451 165.858
RightUpLeg  -4.66473 -6.76512 0.746082
RightLeg  18.1523 2.70722 0.321651
RightFoot  -14.5938 -0.284665 -6.54668
RightToes  -8.3237e-009 0 -3.6325e-017
Spine  4.91182 -0.517394 5.25166
Spine1  5.11694 0.356838 -0.434457
HEad  -18.8294 -7.15136 -0.781436
LeftShoulder1  -0.608685 5.04779 -33.2519
LeftArm  -2.67733 10.9273 -38.7053
LeftForeArm  24.0976 -33.1881 -5.96912
LeftHand  -0.0262018 5.41738 2.40058
RightShoulder  -1.23804 -6.79296 31.1266
RightArm  17.0228 -16.0105 44.1802
RightForeArm  24.0751 9.59704 7.34857
RightHand  0.545217 6.59057 4.8119
LeftUpLeg  -16.9423 2.76801 0.74425
LeftLeg  46.7758 2.85465 3.65252
LeftFoot  -3.28104 0.0242129 -0.0693108
LeftToes  -1.18267e-011 3.61711e-011 9.57411e-011
1109
root  -67.5408 40.1433 1.45578 160.486 78.2338 158.341
RightUpLeg  -3.95641 -6.94601 -0.493958
RightLeg  17.5691 5.85876 0.71129
RightFoot  -14.8012 -0.306205 -6.82134
RightToes  -8.3237e-009 0 -3.6325e-017
Spine  4.94481 -0.168602 4.98508
Spine1  4.63696 0.691026 -1.01264
HEad  -19.4772 -5.68284 -1.08674
LeftShoulder1  -0.509497 4.80976 -32.8748
LeftArm  -2.49674 11.1228 -39.1733
LeftForeArm  24.3587 -32.3155 -5.73619
LeftHand  -0.0266405 5.38911 1.92621
RightShoulder  -1.26176 -6.8479 31.2212
RightArm  19.0069 -12.2519 45.0131
RightForeArm  18.3363 9.96255 8.05471
RightHand  -0.239204 4.6658 -3.04764
LeftUpLeg  -18.4293 1.73695 0.178953
LeftLeg  41.2946 3.31158 3.50212
LeftFoot  -3.40065 0.0164274 0.0574637
LeftToes  -1.18267e-011 3.61711e-011 9.57411e-011
1110
root  -66.9828 40.1883 1.23699 153.314 80.2424 151.234
RightUpLeg  -2.56017 -6.90952 -1.19001
RightLeg  16.6102 8.20304 0.74544
RightFoot  -14.8981 -0.31732 -6.97259
RightToes  -8.3237e-009 0 -3.6325e-017
Spine  5.07527 -0.106798 4.70864
Spine1  4.5877 0.635812 -1.14256
HEad  -20.4614 -3.63497 -1.72082
LeftShoulder1  -0.49641 4.77255 -32.9795
LeftArm  -1.61663 11.0648 -39.3383
LeftForeArm  24.1351 -31.0634 -5.44545
LeftHand  -0.0180706 6.11966 2.05062
RightShoulder  -1.2345 -6.78713 31.0864
RightArm  20.6219 -8.1568 46.0313
RightForeArm  18.6101 11.0039 8.03931
RightHand  0.13834 5.62549 1.09783
LeftUpLeg  -19.2118 0.820428 0.257565
LeftLeg  34.5798 2.31554 2.08302
LeftFoot  -3.4963 0.0853117 -0.941141
LeftToes  -1.18267e-011 3.61711e-011 9.57411e-011
1111
root  -66.3813 40.2175 1.028 146.124 81.8324 144.033
RightUpLeg  -1.08607 -6.8738 -1.6415
RightLeg  15.4363 10.1538 0.675437
RightFoot  -14.9877 -0.321073 -6.89789
RightToes  -8.3237e-009 0 -3.6325e-017
Spine  5.08479 -0.144409 4.76189
Spine1  4.5146 0.55502 -1.62579
HEad  -21.5246 -1.62226 -1.68068
LeftShoulder1  -0.470437 4.71307 -32.7541
LeftArm  -0.659524 10.8771 -39.8122
LeftForeArm  23.9594 -28.9945 -4.96981
LeftHand  -0.0258052 5.74544 1.26631
RightShoulder  -1.21253 -6.73583 31.0014
RightArm  22.1504 -4.32358 47.2092
RightForeArm  16.7883 11.7497 8.12651
RightHand  -0.119291 4.07804 -1.70361
LeftUpLeg  -19.7106 -0.0432083 0.515223
LeftLeg  26.8364 -0.0508929 0.321935
LeftFoot  -3.48538 0.168833 -2.15431
LeftToes  -1.18267e-011 3.61711e-011 9.57411e-011
1112
root  -65.727 40.2391 0.819591 136.055 83.0477 133.68
RightUpLeg  0.0701901 -6.88737 -2.32356
RightLeg  14.4906 11.9915 0.642461
RightFoot  -15.2378 -0.343595 -7.06746
RightToes  -8.3237e-009 0 -3.6325e-017
Spine  4.98871 0.0121425 4.58196
Spine1  4.11181 0.678321 -2.1344
HEad  -21.7629 0.185063 -1.44608
LeftShoulder1  -0.429976 4.61567 -32.5335
LeftArm  0.512413 10.9216 -40.2798
LeftForeArm  23.4033 -26.7308 -4.4892
LeftHand  -0.02683 5.60643 0.904591
RightShoulder  -1.12566 -6.52826 30.6781
RightArm  24.1519 -1.09657 48.2507
RightForeArm  14.4657 13.2212 7.83377
RightHand  -0.100766 3.92204 -1.46769
LeftUpLeg  -19.9407 -0.612647 0.494526
LeftLeg  18.4724 -2.87028 -0.738306
LeftFoot  -2.88627 0.243212 -3.04392
LeftToes  -1.18267e-011 3.61711e-011 9.57411e-011
1113
root  -65.0151 40.2119 0.645162 124.1 83.9524 122.041
RightUpLeg  1.92204 -6.80276 -2.90033
RightLeg  13.6427 13.5958 0.477733
RightFoot  -15.7327 -0.376619 -7.04035
RightToes  -8.3237e-009 0 -3.6325e-017
Spine  5.20769 0.249945 3.99181
Spine1  4.2104 0.833659 -2.00861
HEad  -22.5906 0.572441 -1.87399
LeftShoulder1  -0.429994 4.60958 -32.7476
LeftArm  1.69406 10.9582 -40.4385
LeftForeArm  23.2209 -24.8901 -4.0954
LeftHand  -0.02793 5.42651 -0.604525
RightShoulder  -1.01111 -6.2852 29.8052
RightArm  25.3458 1.76473 49.6158
RightForeArm  10.8534 14.2072 7.61648
RightHand  -0.215808 5.3663 -2.68373
LeftUpLeg  -19.2027 -0.683116 0.324918
LeftLeg  10.3226 -4.38289 -0.443263
LeftFoot  -1.80189 0.398808 -4.6389
LeftToes  -1.18267e-011 3.61711e-011 9.57411e-011
1114
root  -64.2306 40.173 0.4561 111.233 84.4102 109.438
RightUpLeg  3.89705 -6.7256 -3.59356
RightLeg  12.6442 14.9451 0.2388
RightFoot  -16.1887 -0.400924 -6.88643
RightToes  -8.3237e-009 0 -3.6325e-017
Spine  5.09959 0.526347 3.4512
Spine1  4.52859 1.16524 -2.35271
HEad  -22.8008 1.25893 -1.2057
LeftShoulder1  -0.368071 4.45279 -32.6327
LeftArm  2.59537 11.3619 -40.7376
LeftForeArm  22.9965 -23.0284 -3.82931
LeftHand  -0.0265311 5.47233 -0.984695
RightShoulder  -0.988459 -6.25004 29.4394
RightArm  27.2935 4.30009 50.3265
RightForeArm  8.54279 15.6018 7.14896
RightHand  -0.105507 6.13397 -1.39797
LeftUpLeg  -18.5342 0.96063 -0.521833
LeftLeg  4.15707 -4.16169 -0.128339
LeftFoot  -0.841039 0.569488 -6.17409
LeftToes  -1.18267e-011 3.61711e-011 9.57411e-011
1115
root  -63.3775 40.0213 0.222402 99.4371 84.6058 98.1011
RightUpLeg  5.72128 -5.97697 -4.08373
RightLeg  12.6891 15.331 -0.103826
RightFoot  -17.4858 -0.468415 -6.51595
RightToes  -8.3237e-009 0 -3.6325e-017
Spine  5.01951 0.706875 3.54201
Spine1  4.91949 1.60215 -3.40155
HEad  -23.1552 1.0534 -0.516119
LeftShoulder1  -0.282286 4.23919 -32.2715
LeftArm  2.62543 11.9616 -40.8444
LeftForeArm  23.2717 -21.2959 -4.02354
LeftHand  -0.0250269 5.56141 -1.01163
RightShoulder  -0.991753 -6.25916 29.4225
RightArm  30.3755 6.16878 50.7418
RightForeArm  5.01517 17.9858 6.25799
RightHand  -0.252594 5.55739 -2.99323
LeftUpLeg  -18.0749 1.52837 -1.01587
LeftLeg  1.59482 -0.914316 -0.770852
LeftFoot  -1.7403 0.751974 -8.79319
LeftToes  -1.18267e-011 3.61711e-011 9.57411e-011
